<svg version="1.2" xmlns="http://www.w3.org/2000/svg" viewBox="0 0 32 32" width="64" height="64"><style></style><path  d="m30.7 14.2c-0.1-0.6-0.2-1.2-0.3-1.9q-0.3-1-0.9-2.2c-0.4-0.8-0.8-1.6-1.5-2.3-0.3-0.4-0.5-0.6-0.8-1 0.4-1.7-0.6-3.3-0.6-3.3-1.7-0.1-2.8 0.5-3.2 0.8q-0.1 0-0.2-0.1-0.4-0.1-0.9-0.3c-0.3-0.1-0.6-0.2-0.9-0.3q-0.5-0.1-1-0.2-0.1 0-0.2 0c-0.7-2.4-2.9-3.4-2.9-3.4-2.5 1.6-2.9 3.7-2.9 3.7q0 0-0.1 0.1c-0.1 0.1-0.2 0.1-0.4 0.1q-0.2 0.1-0.5 0.2c-0.2 0.1-0.4 0.2-0.5 0.3-0.4 0.1-0.8 0.3-1.1 0.5q-0.5 0.3-1 0.6-0.1 0-0.1 0c-3.3-1.3-6.3 0.2-6.3 0.2-0.2 3.6 1.4 5.8 1.7 6.2-0.1 0.2-0.2 0.4-0.3 0.7q-0.3 1.2-0.5 2.4c0 0.1 0 0.3-0.1 0.4-3 1.5-3.9 4.6-3.9 4.6 2.5 3 5.5 3.1 5.5 3.1q0.6 1.1 1.3 2 0.4 0.3 0.7 0.7c-0.9 2.7 0.1 4.9 0.1 4.9 2.9 0.1 4.8-1.2 5.2-1.5l0.8 0.2c0.9 0.2 1.8 0.4 2.7 0.4h1.2c1.3 1.9 3.7 2.2 3.7 2.2 1.7-1.8 1.8-3.5 1.8-3.9v-0.2q0.5-0.4 1-0.8c0.7-0.6 1.2-1.3 1.8-2 0-0.1 0-0.2 0.1-0.2 1.9 0.1 3.2-1.2 3.2-1.2-0.3-2-1.4-3-1.6-3.1l-0.1-0.1q0-0.2 0-0.4 0-0.3 0-0.6v-0.9q0-0.1 0-0.1l-0.1-0.4c0-0.2 0-0.4-0.1-0.6q-0.3-1.3-0.9-2.4-0.7-1.1-1.7-2-0.9-0.8-2-1.3-1.1-0.5-2.2-0.6c-0.4 0-0.8 0-1.2 0h-0.5q-0.3 0-0.6 0c-0.8 0.2-1.5 0.5-2.1 0.8q-0.9 0.6-1.6 1.4-0.7 0.8-1.1 1.8c-0.2 0.6-0.3 1.2-0.3 1.8v0.7q-0.1 0.1 0 0.2c0.1 0.9 0.4 1.7 0.9 2.4q0.5 0.7 1.1 1.1 0.7 0.4 1.4 0.6 0.6 0.2 1.2 0.2h0.6q0.1 0 0.2 0c0 0 0.1-0.1 0.1-0.1 0.1 0 0.2 0 0.3 0q0.3-0.1 0.5-0.2 0.3-0.2 0.4-0.3 0.1 0 0.1-0.1c0.2-0.1 0.2-0.3 0.1-0.4-0.1-0.1-0.3-0.2-0.4-0.1q-0.1 0-0.1 0-0.2 0.1-0.4 0.2-0.2 0-0.4 0.1c-0.1 0-0.2 0-0.3 0h-0.4c0 0-0.1 0 0 0h-0.2q0 0-0.1 0-0.4-0.1-0.9-0.3-0.5-0.2-0.9-0.6-0.4-0.4-0.7-0.9-0.3-0.5-0.4-1 0-0.3 0-0.6v-0.2c0 0 0 0 0 0v-0.2c0-0.1 0-0.2 0-0.3 0.2-0.8 0.6-1.7 1.3-2.3q0.2-0.2 0.5-0.4 0.3-0.2 0.6-0.3 0.3-0.2 0.6-0.3 0.4-0.1 0.7-0.1 0.2 0 0.4 0h0.2c0 0 0 0 0 0h0.1q1.2 0.1 2.2 0.7c0.9 0.5 1.6 1.2 2.1 2.2q0.4 0.7 0.5 1.5c0 0.1 0 0.2 0 0.4v0.7q0 0.2 0 0.4 0 0.2 0 0.5l-0.1 0.4c-0.1 0.1-0.2 0.5-0.3 0.8-0.1 0.3-0.5 1.1-0.8 1.5-0.7 1-1.6 1.7-2.7 2.2-0.5 0.2-1.1 0.4-1.6 0.5q-0.4 0.1-0.9 0.1h-0.4c0 0 0 0 0 0-0.2 0-0.3 0-0.5 0q-0.9-0.1-1.8-0.4-0.9-0.2-1.7-0.7c-1.1-0.5-2-1.3-2.8-2.3q-0.6-0.7-1-1.5c-0.3-0.6-0.5-1.1-0.7-1.7q-0.2-0.8-0.2-1.7v-0.9q0-0.5 0-0.9 0.1-0.5 0.2-0.9 0.1-0.5 0.2-1c0.1-0.3 0.4-1.1 0.6-1.7 0.5-1 1.2-2 2-2.8q0.3-0.3 0.6-0.5c0.1-0.1 0.3-0.3 0.5-0.4q0.3-0.2 0.7-0.4 0.2-0.1 0.4-0.2 0.1 0 0.2-0.1 0.1 0 0.2 0 0.4-0.2 0.7-0.3c0.1-0.1 0.2-0.1 0.2-0.1 0.1 0 0.2 0 0.2 0 0.1-0.1 0.3-0.1 0.4-0.2 0.1 0 0.2 0 0.2 0 0.1 0 0.2 0 0.2 0 0.1 0 0.2-0.1 0.2-0.1h0.3c0 0 0.1-0.1 0.2-0.1 0 0 0.1 0 0.2 0 0 0 0.2 0 0.2 0q0.1 0 0.1 0h0.2c0.1 0 0.2 0 0.3-0.1h0.1c0 0 0 0 0 0h1q0.8 0.1 1.5 0.2 1.5 0.3 2.8 0.9 1.2 0.6 2.2 1.5 0 0 0.1 0.1c0 0 0.1 0 0.1 0.1 0.1 0 0.2 0.1 0.2 0.2 0.1 0 0.2 0.1 0.3 0.2 0 0.1 0.1 0.1 0.2 0.2q1.1 1.2 1.8 2.7 0.1 0 0.1 0.1 0 0 0.1 0.1c0 0 0 0.1 0.1 0.2q0 0.1 0.1 0.2 0 0.1 0 0.2 0.2 0.4 0.3 0.7c0.2 0.4 0.2 0.8 0.3 1.1 0.1 0.1 0.2 0.2 0.3 0.2 0.1 0 0.2-0.1 0.2-0.3 0-0.3 0-0.7 0-1.1z"/></svg>