<svg version="1.2" xmlns="http://www.w3.org/2000/svg" viewBox="0 0 32 32" width="64" height="64"><style></style><path  d="m31.5 21.2l-7.7 9.5c-0.4 0.5-1 0.8-1.6 0.8h-12.4c-0.6 0-1.2-0.3-1.6-0.8l-7.7-9.5c-0.4-0.5-0.6-1.2-0.4-1.8l2.7-12c0.1-0.6 0.6-1.1 1.2-1.4l11.1-5.3c0.6-0.3 1.2-0.3 1.8 0l11.1 5.3c0.6 0.3 1.1 0.8 1.2 1.4l2.8 12c0.1 0.6-0.1 1.3-0.5 1.8zm-4.3-2.8q-0.1 0-0.2 0c-0.3-0.1-0.5-0.1-0.7-0.1-0.4 0-0.8-0.1-1.2-0.2-0.1 0-0.2-0.2-0.3-0.3l-0.2-0.1q0.2-1.5-0.2-3.1-0.3-1.5-1.2-2.8c0.1-0.1 0.2-0.2 0.2-0.3 0-0.1 0-0.2 0.1-0.3 0.3-0.3 0.6-0.5 1-0.7 0.2-0.1 0.4-0.2 0.6-0.4q0.1 0 0.1-0.1c0.4-0.2 0.4-0.7 0.2-0.9-0.2-0.3-0.7-0.4-1-0.1q-0.1 0-0.1 0.1c-0.2 0.2-0.3 0.3-0.5 0.5-0.3 0.3-0.6 0.6-0.9 0.8-0.1 0.1-0.3 0-0.4 0l-0.2 0.2c-1.5-1.5-3.5-2.5-5.6-2.7v-0.3c-0.1 0-0.2-0.1-0.2-0.3 0-0.3 0-0.7 0.1-1.2 0-0.2 0.1-0.4 0.1-0.6q0-0.1 0-0.2c0-0.4-0.3-0.8-0.7-0.8-0.4 0-0.7 0.4-0.7 0.8q0 0.1 0 0.2c0 0.2 0.1 0.4 0.1 0.6 0.1 0.5 0.1 0.9 0.1 1.2q-0.1 0.2-0.2 0.4v0.2c-2.2 0.2-4.1 1.2-5.6 2.7q-0.1-0.1-0.2-0.2c-0.1 0.1-0.3 0.1-0.4 0-0.3-0.2-0.6-0.5-0.9-0.8-0.2-0.2-0.3-0.3-0.5-0.5q0 0-0.1-0.1-0.2-0.2-0.5-0.2-0.3 0-0.5 0.3c-0.2 0.3-0.2 0.7 0.2 0.9v0.1l0.1 0.1c0.2 0.1 0.4 0.2 0.6 0.3 0.4 0.2 0.7 0.4 1 0.7 0.1 0.1 0.1 0.3 0.1 0.4l0.2 0.2c-1.2 1.7-1.7 3.9-1.4 6h-0.2c-0.1 0.1-0.2 0.3-0.3 0.3-0.4 0.1-0.8 0.2-1.2 0.2-0.2 0.1-0.4 0-0.7 0.1q0 0-0.1 0h-0.1c-0.3 0.1-0.6 0.5-0.5 0.8 0.1 0.4 0.4 0.6 0.8 0.5h0.1 0.1c0.3-0.1 0.4-0.2 0.6-0.2 0.5-0.2 0.8-0.3 1.2-0.4 0.1 0 0.3 0.1 0.4 0.1h0.3c0.6 2 2 3.7 3.8 4.8l-0.1 0.3c0 0.1 0.1 0.2 0 0.4-0.1 0.3-0.3 0.6-0.6 1-0.1 0.2-0.2 0.4-0.3 0.6q-0.1 0.1-0.1 0.2c-0.2 0.3 0 0.7 0.3 0.9 0.3 0.2 0.7 0 0.9-0.4q0.1-0.1 0.1-0.1c0.1-0.3 0.1-0.5 0.2-0.7 0.2-0.4 0.3-0.9 0.5-1.2q0.1-0.1 0.3-0.1l0.1-0.3c2 0.8 4.2 0.8 6.2 0l0.1 0.3c0.1 0 0.3 0.1 0.4 0.2 0.1 0.3 0.3 0.7 0.4 1.1 0.1 0.2 0.1 0.4 0.2 0.6q0 0.1 0.1 0.2c0.2 0.4 0.6 0.5 0.9 0.4 0.3-0.2 0.5-0.6 0.3-1q0 0-0.1-0.1c-0.1-0.2-0.2-0.4-0.3-0.6-0.3-0.4-0.5-0.7-0.6-1-0.1-0.2 0-0.3 0-0.4 0 0-0.1-0.2-0.1-0.3 1.8-1.1 3.2-2.8 3.8-4.8 0.1 0 0.3 0 0.3 0 0.1 0 0.2-0.1 0.4-0.1 0.4 0 0.7 0.2 1.2 0.3 0.2 0.1 0.3 0.2 0.6 0.3q0 0 0.1 0h0.1c0.4 0.1 0.7-0.1 0.8-0.5 0.1-0.3-0.2-0.7-0.5-0.8zm-13.2-4.7c0.4 0.2 0.9 0 1-0.5l0.2-3.5c-1.6 0.2-3 0.9-4.1 1.9 0 0 2.9 2.1 2.9 2.1zm1 3.6l1 0.5 1-0.5 0.2-1-0.7-0.8h-1l-0.7 0.8zm2-4.1c0 0.4 0.5 0.7 0.9 0.4l2.9-2c-1.1-1.1-2.5-1.7-4-1.9 0 0 0.2 3.5 0.2 3.5zm-3.4 5.9l-1.4 3.2c-1.2-0.8-2.2-2-2.7-3.4l3.4-0.6c0.5-0.1 0.8 0.4 0.7 0.8zm-1.1-2.8c0.4-0.2 0.5-0.7 0.2-1.1l-2.6-2.3c-0.8 1.3-1.2 2.8-1 4.3l3.3-0.9zm9.4-3.4l-2.6 2.3c-0.3 0.4-0.2 0.9 0.2 1.1h0.1l3.3 0.9q0.1-1.1-0.1-2.2-0.3-1.1-0.9-2.1zm-5.3 7.1c-0.1-0.2-0.3-0.3-0.6-0.3-0.2 0-0.4 0.1-0.5 0.3l-1.7 3.1c1.5 0.5 3 0.5 4.5 0l-1.7-3.1zm2.5-1.7q-0.2 0-0.4 0c-0.2 0.2-0.4 0.5-0.2 0.8l1.3 3.2c1.3-0.8 2.3-2 2.8-3.4l-3.5-0.6z"/></svg>