<svg version="1.2" xmlns="http://www.w3.org/2000/svg" viewBox="0 0 76 76" width="64" height="64"><style></style><path  d="m66.1 12.1h-56.9c-5.1 0-9.2 4.1-9.2 9.2v32.7c0 5.1 4.1 9.2 9.2 9.2h56.9c5.1 0 9.2-4.1 9.2-9.2v-32.7c0-5.1-4.1-9.2-9.2-9.2zm-4.5 6l-24 15.4-23.9-15.4zm4.5 39.1h-56.9c-1.8 0-3.2-1.4-3.2-3.2v-32.5l29.8 19.1q0 0.1 0.1 0.1 0.1 0 0.1 0.1 0.4 0.1 0.8 0.2 0 0 0 0 0.4 0.1 0.8 0.1 0 0 0 0 0 0 0 0 0.4 0 0.8-0.1 0.1 0 0.1 0 0.4-0.1 0.7-0.2 0.1-0.1 0.2-0.1 0 0 0.1-0.1l29.8-19.1v32.5c0 1.8-1.5 3.2-3.2 3.2z"/></svg>