<svg version="1.2" xmlns="http://www.w3.org/2000/svg" viewBox="0 0 24 24" width="64" height="64"><style></style><path  d="m12 6.5c-2.5 0-4.6 1.7-5.2 4.1-0.6-1.3-1.8-2.2-3.2-2.2q-0.8 0.1-1.4 0.3-0.7 0.3-1.2 0.8-0.5 0.5-0.7 1.1-0.3 0.7-0.3 1.4 0 0.7 0.3 1.4 0.2 0.6 0.7 1.1 0.5 0.5 1.2 0.8 0.6 0.2 1.4 0.3c1.4 0 2.6-0.9 3.2-2.2 0.6 2.4 2.7 4.1 5.2 4.1 2.5 0 4.6-1.7 5.2-4 0.6 1.2 1.8 2.1 3.2 2.1q0.8-0.1 1.4-0.3 0.7-0.3 1.2-0.8 0.5-0.5 0.7-1.1 0.3-0.7 0.3-1.4 0-0.7-0.3-1.4-0.2-0.6-0.7-1.1-0.5-0.5-1.2-0.8-0.6-0.2-1.4-0.3c-1.4 0-2.6 0.9-3.2 2.1-0.6-2.3-2.7-4-5.2-4zm0 2.1c1.9 0 3.4 1.5 3.4 3.4 0 1.9-1.5 3.4-3.4 3.4q-0.7 0-1.3-0.3-0.6-0.2-1.1-0.7-0.4-0.5-0.7-1.1-0.3-0.6-0.3-1.3c0-1.9 1.5-3.4 3.4-3.4zm-8.4 1.9c0.8 0 1.4 0.7 1.4 1.5 0 0.8-0.6 1.5-1.4 1.5q-0.3 0-0.6-0.1-0.3-0.2-0.5-0.4-0.2-0.2-0.3-0.4-0.1-0.3-0.1-0.6c0-0.8 0.6-1.5 1.5-1.5zm16.8 0c0.9 0 1.5 0.7 1.5 1.5 0 0.8-0.6 1.5-1.5 1.5q-0.2 0-0.5-0.1-0.3-0.2-0.5-0.4-0.2-0.2-0.3-0.4-0.1-0.3-0.1-0.6c0-0.8 0.6-1.5 1.4-1.5z"/></svg>