<svg version="1.2" xmlns="http://www.w3.org/2000/svg" viewBox="0 0 646 854" width="64" height="64"><style></style><path  d="m140.6 0.2c-7.9 1.3-17.5 5.5-24.2 10.6-20.5 15.6-36.3 48.5-43 89.5-2.5 15.5-4.2 37-4.2 53.4 0 19.4 2.3 44.2 5.5 61.3 0.8 3.8 1.1 7.2 0.8 7.4-0.2 0.2-3.2 2.7-6.6 5.4-11.5 9.2-24.7 23.3-33.8 36.3-17.4 24.7-28.7 52.8-33.4 83.2-1.8 12-2.3 36.3-0.8 48.3 3.2 27.7 11.5 51.1 25.8 72.6l4.7 6.9-1.4 2.2c-9.5 16.1-17.7 39.3-21.5 61.7-3 17.6-3.3 22.3-3.3 46 0 23.8 0.3 28.6 3.1 45 3.4 19.8 10.2 40.7 17.9 54.6 2.5 4.5 8.6 14 9.4 14.5 0.2 0.1-0.5 2.4-1.7 5-8.8 19.3-16.4 45-19.5 66.6-2.2 14.9-2.5 19.6-2.5 35.3 0 19.9 1.1 29.6 5.3 45.5l0.6 2.3h26.2 26.3l-1.7-3.3c-10.6-19.6-11.6-56-2.5-92.3 4.2-16.8 8.9-29.2 17.8-46.1l5.2-10.3v-6.3c0-5.9-0.1-6.6-2-10.5-1.5-2.9-3.4-5.4-6.9-8.9-6-5.7-10.3-11.8-13.7-19.3-15.1-32.7-18-81.3-7.4-122.8 4.4-17.2 11.7-32.6 19.4-41 5.2-5.8 7.9-12.2 7.9-18.9 0-6.9-2.5-12.6-8-18.6-15.8-16.9-25.6-37.5-29-61.5-5-34.1 4-71.3 24.5-100.8 20-28.9 48.2-47.5 79.6-52.5 7.1-1.1 20.2-1 27.6 0.4 8 1.4 13 1 18.2-1.5 6.4-3 9.6-6.7 13.3-15.3 3.3-7.7 5.9-11.8 12.8-20.5 8.3-10.3 16.4-17.4 29.2-25.9 14.8-9.6 31.5-16.6 48.2-20 6-1.2 8.9-1.4 20.2-1.4 11.3 0 14.2 0.2 20.2 1.4 24.5 5 48.8 17.6 68.1 35.5 4.2 3.9 14.2 16.2 17.4 21.4 1.2 2 3.4 6.3 4.7 9.5 3.7 8.6 6.9 12.3 13.3 15.3 5 2.4 10.2 2.9 17.9 1.6 12.2-2.1 21.6-1.9 33.5 0.6 40.7 8.2 76.2 41.7 91.9 86.6 13.6 39.5 9.8 80.7-10.6 112.2-3.4 5.4-6.8 9.7-11.8 14.9-10.7 11.5-10.7 25.7-0.1 37.5 17.6 19.2 28.5 66.4 25.2 108-2.2 27.5-9.2 52-18.9 66-1.7 2.4-5.3 6.6-8 9.1-3.5 3.5-5.4 6-6.9 8.9-1.9 3.9-2 4.6-2 10.5v6.3l5.2 10.3c8.9 16.9 13.6 29.3 17.8 46.1 9 35.8 8.2 71.5-2.1 91.8-0.9 1.7-1.6 3.3-1.6 3.5 0 0.2 11.7 0.3 26 0.3h26l0.7-2.6c0.4-1.4 1-3.6 1.3-4.8 0.7-2.7 2-10.7 3.1-18.4 1-7.7 1-36.1 0-44.7-3.9-31.1-10.5-55.8-21.2-79.2-1.2-2.6-1.9-4.9-1.7-5 0.3-0.2 2.1-2.7 3.9-5.4 13.4-20.3 21.6-45.7 25.7-79.3 1.2-9.2 1.2-49 0-57.9-2.9-22.9-6.4-38.5-12.3-54.3-2.5-6.5-9-20.4-11.7-24.9l-1.4-2.2 4.7-6.9c14.3-21.5 22.6-44.9 25.8-72.6 1.5-12 1-36.3-0.8-48.3-4.8-30.5-16-58.5-33.4-83.2-9.1-13-22.3-27.1-33.8-36.3-3.4-2.7-6.4-5.2-6.6-5.4-0.3-0.2 0-3.6 0.8-7.4 7.4-38.7 7.1-86.9-0.6-124.6-6.8-32.9-19-59-34.9-74.1-12.6-12-25.5-17.2-40.9-16.2-35.4 2.1-64 42.9-75.3 107.1-1.8 10.4-3.4 22.5-3.4 25.8 0 1.3-0.3 2.3-0.6 2.3-0.3 0-2.7-1.2-5.2-2.7-27.4-16.2-57.8-24.8-87.4-24.8-29.6 0-60 8.6-87.4 24.8-2.5 1.5-4.9 2.7-5.2 2.7-0.3 0-0.6-1-0.6-2.3 0-3.4-1.6-15.9-3.4-25.8-10.2-57.7-33.7-95.9-64.9-105.5-4.3-1.3-16.5-2.1-20.9-1.5zm10.5 49.9c8.8 7 18.6 27 24.2 49.4 1.1 4 2.2 8.7 2.5 10.4 0.2 1.7 0.9 5.4 1.4 8.3 2.4 13 3.5 27 3.7 44.1v16.9l-4.2 6.2-4.2 6.3h-9.9c-11.5 0-23 1.5-34 4.5-3.9 0.9-7.7 1.9-8.4 2.1-1.2 0.2-1.4-0.1-2-5.1-3.7-27.3-3.5-57.5 0.5-82.7 4.4-28 14.7-53.4 24.8-60.9 2.4-1.7 2.8-1.7 5.6 0.5zm349.5-0.4c6.1 4.5 12.7 16.4 17.7 31.6 10 30.4 12.8 72.1 7.5 111.9-0.6 5-0.8 5.3-2 5.1-0.7-0.2-4.5-1.2-8.4-2.1-11-3-22.5-4.5-34-4.5h-9.9l-4.2-6.3-4.2-6.2v-16.9c0.2-23.8 2.4-42.3 7.6-63 5.6-22.2 15.5-42.2 24.2-49.2 2.8-2.2 3.2-2.2 5.7-0.4z"/><path  d="m313.5 358.2c-13.3 1.3-16.9 1.8-23.3 3.1-10.4 2.1-24.2 6.9-33.8 11.7-33.5 16.3-56.6 43.6-63.6 75.2-1.4 6.2-1.6 8.3-1.6 18.8 0 10.5 0.2 12.7 1.5 18.7 9.4 41.2 47.4 71.7 96.6 77.3 10.6 1.1 56.7 1.1 67.4 0 39.5-4.5 73.5-25.9 88.7-55.9 4.1-8.1 6-13.3 7.9-21.4 1.3-6 1.5-8.2 1.5-18.7 0-10.5-0.2-12.6-1.6-18.8-10.2-45.9-54.7-82-109.3-88.9-7.1-0.8-25.7-1.6-30.4-1.1zm22.9 33.4c18.2 1.9 36.6 8.4 51.3 18.3 7.9 5.2 19 16.3 23.8 23.5 5.9 8.9 9.3 18.1 10.8 29.2 0.7 5.1 0.3 8.9-1.5 17.1-2.9 12.3-11.9 25.1-23.9 34.1-5.7 4.1-17.4 10-24.6 12.3-13.6 4.4-22.5 5.2-54.2 4.9-20.7-0.1-24.4-0.3-30.3-1.4-20.3-3.8-36.4-11.9-48-24.2-9.5-10-13.8-19-16.1-33.7-1-6.8 0.9-18.1 4.9-27.6 4.8-11.6 17.3-26 29.7-34.2 14.4-9.6 33.3-16.4 50.6-18.3 6.7-0.7 20.8-0.7 27.5 0z"/><path  d="m299.6 436.3c-4.7 2.5-7.9 8.9-6.9 13.6 1.1 5.1 5.5 10.3 12.5 14.5 3.8 2.3 4 2.6 4.2 4.9 0.1 1.3-0.4 5.2-1 8.6-0.8 3.4-1.3 6.9-1.3 7.9 0 2.6 2.5 6.9 5 9 2.3 1.9 2.7 1.9 9.1 2.1 5.8 0.2 7.1 0.1 9.4-1 6-3 7.5-8.4 5.3-18.7-1.8-8.7-1.4-10 3.2-12.7 4.8-2.8 10-7.8 11.5-11.1 2.9-6.5 0.2-13.8-6.3-17.1-1.6-0.8-3.5-1.2-6.4-1.2-4.5 0-7.4 1.1-12.6 4.4l-3 1.9-1.9-1.1c-7.8-4.6-9.2-5.2-14-5.1-3.3 0-5.2 0.3-6.8 1.1z"/><path  d="m150.7 365.2c-10.8 3.4-18.9 11.4-23.1 22.7-2 5.4-3 13.9-2.1 18.5 2 11 11 21 21.3 23.7 12.8 3.4 22.5 1.2 31-7.2 4.9-4.9 7.6-9.1 10.3-16 2-4.8 2.1-5.7 2.1-12.6l0.1-7.3-2.6-5.3c-4.1-8.3-11.5-14.5-20.1-16.8-4.8-1.2-12.6-1.1-16.9 0.3z"/><path  d="m478.2 365c-8.4 2.3-15.9 8.5-19.9 16.7l-2.6 5.3 0.1 7.3c0 6.9 0.1 7.8 2.1 12.6 2.7 6.9 5.4 11.1 10.3 16 8.5 8.4 18.2 10.6 31 7.2 7.5-1.9 14.9-8.2 18.4-15.5 3.1-6.2 3.8-10.6 2.9-17.7-2.3-16.1-11.8-27.8-25.8-31.9-4.1-1.2-12.1-1.2-16.5 0z"/></svg>