<svg version="1.2" xmlns="http://www.w3.org/2000/svg" viewBox="0 0 24 24" width="64" height="64"><style></style><path  d="m12 0c-6.6 0-12 5.4-12 12 0 6.6 5.4 12 12 12 6.6 0 12-5.4 12-12 0-6.6-5.4-12-12-12zm0 22.5c-1.9 0-3.4-1.3-3.4-2.9h6.8c0 1.6-1.5 2.9-3.4 2.9zm5.6-3.8h-11.2v-2h11.2zm0-3.1h-11.2q-0.1-0.1-0.1-0.2c-1.2-1.4-1.4-2.1-1.7-2.8 0-0.1 1.4 0.2 2.4 0.5 0 0 0.5 0.1 1.2 0.2-0.7-0.8-1.1-1.9-1.1-3 0-2.4 1.8-4.5 1.2-6.2 0.6 0.1 1.3 1.4 1.4 3.4 0.7-0.9 0.9-2.7 0.9-3.7 0-1.1 0.8-2.4 1.5-2.5-0.6 1.1 0.2 2 0.9 4.3 0.3 0.9 0.2 2.3 0.4 3.2 0.1-1.9 0.4-4.6 1.6-5.6-0.5 1.2 0.1 2.7 0.5 3.4 0.7 1.2 1.1 2.1 1.1 3.7q0 0.4-0.1 0.9 0 0.4-0.2 0.7-0.1 0.4-0.3 0.8-0.2 0.3-0.5 0.6c0.8-0.1 1.3-0.2 1.3-0.2l2.6-0.5c0 0-0.4 1.5-1.8 3z"/></svg>