<svg version="1.2" xmlns="http://www.w3.org/2000/svg" viewBox="0 0 24 24" width="64" height="64"><style></style><path  d="m12 0c6.6 0 12 5.4 12 12 0 6.6-5.4 12-12 12-6.6 0-12-5.4-12-12 0-6.6 5.4-12 12-12zm3.3 17.7c-0.8 0.4-1 1.4-0.6 2.2 0.4 0.7 1.4 1 2.2 0.6 0.7-0.5 1-1.5 0.6-2.2-0.5-0.8-1.5-1.1-2.2-0.6zm-3.3-1q-1.1 0-2-0.5l-1.1 2c0.9 0.5 2 0.8 3.1 0.8q1 0 1.9-0.3c0.1-0.6 0.4-1.2 1.1-1.6 0.6-0.3 1.3-0.4 1.9-0.1 1.2-1.2 1.9-2.8 2-4.6h-2.2c-0.3 2.4-2.3 4.3-4.7 4.3zm-4.7-4.7c0-1.6 0.8-3 2-3.8l-1.2-2c-1.4 0.9-2.4 2.4-2.8 4 0.5 0.4 0.8 1.1 0.8 1.8 0 0.7-0.3 1.3-0.8 1.7 0.4 1.7 1.4 3.1 2.8 4.1l1.2-2c-1.2-0.8-2-2.2-2-3.8zm-3.5-1.6c-0.8 0-1.6 0.7-1.6 1.6 0 0.9 0.8 1.6 1.6 1.6 0.9 0 1.6-0.7 1.6-1.6 0-0.9-0.7-1.6-1.6-1.6zm8.2-3.1c2.4 0 4.5 1.9 4.7 4.3h2.2c-0.1-1.8-0.8-3.4-2-4.6-0.6 0.3-1.3 0.2-1.9-0.1-0.7-0.4-1-1-1.1-1.6q-0.9-0.3-1.9-0.3c-1.1 0-2.2 0.3-3.1 0.8l1.1 2q0.9-0.5 2-0.5zm3.3-1c0.7 0.5 1.7 0.2 2.2-0.6 0.4-0.7 0.1-1.7-0.6-2.2-0.8-0.4-1.8-0.1-2.2 0.6-0.5 0.8-0.2 1.8 0.6 2.2z"/></svg>