<svg version="1.2" xmlns="http://www.w3.org/2000/svg" viewBox="0 0 64 64" width="64" height="64"><style></style><path  d="m30.8 1.2c-0.4 0.6-0.9 1.4-1.2 1.7-0.5 0.5-0.5 0.4-1.9-1-1.8-1.8-2.1-1.7-2.9 0.5-0.4 1-0.8 1.6-1.2 1.8-0.5 0.3-0.7 0.2-2-0.7-2.2-1.5-2.5-1.3-2.9 1.7-0.1 0.7-0.3 1.2-0.6 1.3-0.2 0.1-1.1-0.2-1.9-0.6-2.1-0.9-2.4-0.7-2.4 1.7 0 1-0.1 1.9-0.2 2.1-0.2 0.1-0.9 0.1-2.1-0.2-2.5-0.6-2.6-0.5-2 2 0.3 1.2 0.3 1.9 0.1 2.1-0.1 0.1-1 0.2-2 0.2-2.5 0-2.7 0.3-1.6 2.4 0.9 2.1 0.7 2.7-1.2 3-2.9 0.4-3.1 0.7-1.5 2.8 1.3 1.7 1.2 2-0.9 2.7-2.3 0.9-2.3 1.2-0.5 3 1.4 1.4 1.4 1.5 1 1.9-0.3 0.3-1.1 0.8-1.7 1.2-1.6 0.9-1.6 1.5 0 2.4 0.6 0.4 1.4 0.9 1.7 1.2 0.4 0.4 0.4 0.5-1 1.9-1.8 1.8-1.8 2.1 0.5 2.9 1 0.4 1.6 0.8 1.8 1.2 0.3 0.5 0.2 0.7-0.7 2-1.5 2.2-1.3 2.5 1.6 2.9 0.8 0.1 1.3 0.3 1.4 0.6 0.1 0.2-0.2 1.1-0.6 1.9-1 2.1-0.7 2.4 1.7 2.4 1 0 1.9 0.1 2 0.2 0.2 0.2 0.2 0.9-0.1 2.1-0.6 2.5-0.5 2.6 2 2 1.2-0.3 1.9-0.3 2.1-0.1 0.1 0.1 0.2 1 0.2 2 0 2.5 0.3 2.7 2.4 1.6 2.1-1 2.7-0.7 3 1.2 0.4 2.9 0.7 3.1 2.8 1.5 1.7-1.3 2-1.2 2.7 0.9 0.9 2.3 1.1 2.3 3 0.5 1.8-1.7 1.6-1.8 3.1 0.7 0.9 1.6 1.5 1.6 2.4 0 1.5-2.5 1.3-2.4 3.1-0.7 1.8 1.8 2.1 1.8 2.9-0.5 0.4-1 0.8-1.6 1.2-1.8 0.5-0.3 0.7-0.2 2 0.7 2.1 1.5 2.5 1.3 2.9-1.6 0.1-0.8 0.3-1.3 0.6-1.4 0.2-0.1 1.1 0.2 1.9 0.6 2 1 2.4 0.7 2.4-1.7 0-1 0.1-1.9 0.2-2 0.2-0.2 0.9-0.2 2.1 0.1 2.5 0.6 2.6 0.5 2-2-0.3-1.2-0.3-1.9-0.2-2.1 0.2-0.1 1.1-0.2 2.1-0.2 2.4 0 2.6-0.3 1.6-2.4-1-2.1-0.7-2.7 1.2-3 2.9-0.4 3-0.7 1.5-2.8-1.3-1.7-1.2-2 0.9-2.7 2.2-0.9 2.3-1.1 0.5-3-1.7-1.8-1.8-1.6 0.7-3.1 0.8-0.5 1.2-0.8 1.2-1.2 0-0.4-0.4-0.7-1.2-1.2-2.5-1.5-2.4-1.3-0.7-3.1 1.8-1.8 1.7-2.1-0.5-2.9-1-0.4-1.6-0.8-1.8-1.2-0.3-0.5-0.2-0.7 0.7-2 1.5-2.1 1.3-2.5-1.7-2.9-0.7-0.1-1.2-0.3-1.3-0.6-0.1-0.2 0.1-1.1 0.6-1.9 0.9-2.1 0.7-2.4-1.7-2.4-1 0-1.9-0.1-2.1-0.2-0.1-0.2-0.1-0.9 0.2-2.1 0.6-2.5 0.5-2.6-2-2-1.2 0.3-1.9 0.3-2.1 0.2-0.1-0.2-0.2-1.1-0.2-2.1 0-2.4-0.4-2.6-2.4-1.6-2.1 1-2.7 0.7-3-1.2-0.4-2.9-0.7-3-2.8-1.5-1.7 1.3-2 1.2-2.7-0.9-0.9-2.2-1.2-2.3-3-0.5-1.4 1.4-1.5 1.5-1.9 1-0.3-0.3-0.8-1.1-1.2-1.7-0.5-0.8-0.9-1.2-1.2-1.2-0.4 0-0.7 0.4-1.2 1.2zm2.5 5.1c0.2 0.3 0.5 0.9 0.5 1.3 0 0.5-0.3 1-0.5 1.3-1.1 1.1-3.1 0.3-3.1-1.3 0-0.9 0.8-1.8 1.8-1.8 0.4 0 1 0.3 1.3 0.5zm-3.9 4.4c2.4 2.4 2.8 2.4 5.2 0l1.9-1.8 1.7 0.5c2.1 0.6 5.2 1.9 5.2 2.2 0 0.1-2.4 7-5.3 15.3-2.9 8.4-5.4 15.6-5.6 16.2-0.2 0.6-0.4 1.1-0.5 1.1-0.1 0-0.3-0.4-0.4-0.9-0.2-0.6-2.7-7.9-5.7-16.3-2.9-8.5-5.3-15.4-5.3-15.5 0-0.3 5.6-2.5 6.8-2.6 0.1 0 0.9 0.8 2 1.8zm-9 25.6c3.6 10.1 6.5 18.4 6.4 18.5-0.1 0.2-2.8-0.6-4-1.2-0.9-0.5-0.9-0.5-1.2-2.7-0.2-1.4-0.6-2.4-0.9-2.8-0.5-0.7-0.5-0.7-2.3-0.5-3.8 0.5-3.6 0.5-5.1-1.5-1.7-2.2-3.2-5.2-3.9-7.7-0.4-1.5-0.6-2.9-0.7-5.6l-0.1-3.7 2.3-1.2c3-1.6 3.1-1.9 1.5-5-1.1-2.3-1.1-2.2 0.4-4.3 0.4-0.6 0.8-1 0.9-0.9 0.1 0.1 3.1 8.5 6.7 18.6zm31.6-16.6l0.6 1.1-1 2c-1.6 3.2-1.5 3.5 1.5 5.1l2.3 1.2v2.8c0 3.4-0.5 5.9-1.6 8.7-0.8 2.1-2.5 4.9-3.8 6.5l-0.9 1-2-0.3c-1.1-0.2-2.3-0.3-2.7-0.3-1.1 0-1.6 0.9-2 3.4l-0.3 2.2-1.3 0.6c-1.6 0.7-3.5 1.3-3.7 1.1-0.1-0.1 10.7-30.8 13-36.8l0.2-0.6 0.5 0.6c0.3 0.4 0.8 1.1 1.2 1.7zm-42 3.5c1.2 1.2 0.5 3-1.2 3-1 0-1.7-0.7-1.7-1.7 0-1.7 1.8-2.5 2.9-1.3zm45.9-0.3c0.8 0.4 1 0.7 1 1.6 0 1-0.7 1.7-1.7 1.7-1.7 0-2.5-1.8-1.2-3 0.6-0.7 1.1-0.7 1.9-0.3zm-36.6 28.2c0.9 2.2-2.2 3.5-3.2 1.3-0.4-0.7-0.4-0.9 0-1.5 0.9-1.3 2.6-1.2 3.2 0.2zm28.2-0.7c0.6 0.5 0.8 1.4 0.4 2.2-1.1 2-4.1 0.6-3.2-1.5 0.5-1.2 1.8-1.5 2.8-0.7z"/></svg>